<svg width="16" height="16" viewBox="0 0 16 16" fill="none" xmlns="http://www.w3.org/2000/svg">
<path d="M4 6.85714V4.80812L11.1919 12H9.14286V13.1429H13.1429V9.14286H12V11.1919L4.80812 4L6.85714 4L6.85714 2.85714L2.85714 2.85714L2.85714 6.85714L4 6.85714Z" fill="#0C314E"/>
<path fill-rule="evenodd" clip-rule="evenodd" d="M0 1.14286C0 0.511675 0.511675 0 1.14286 0H14.8571C15.4883 0 16 0.511675 16 1.14286V14.8571C16 15.4883 15.4883 16 14.8571 16H1.14286C0.511675 16 0 15.4883 0 14.8571V1.14286ZM1.14286 1.14286H14.8571V14.8571H1.14286V1.14286Z" fill="#0C314E"/>
</svg>
