<svg width="22" height="13" viewBox="0 0 22 13" fill="none" xmlns="http://www.w3.org/2000/svg">
<path fill-rule="evenodd" clip-rule="evenodd" d="M4.00006 1.99991C4.0003 1.99662 4.00162 1.97911 4.00859 1.94746C4.01658 1.91122 4.03026 1.86439 4.05174 1.8107C4.09482 1.70299 4.16521 1.57775 4.27165 1.45948C4.47324 1.23549 4.83629 1 5.5 1C6.13704 1 6.48693 1.25423 6.69423 1.54215C6.91989 1.85557 7 2.24668 7 2.5C7 2.77614 7.22386 3 7.5 3C7.77614 3 8 2.77614 8 2.5C8 2.08666 7.88011 1.47777 7.50577 0.957848C7.11307 0.412433 6.46296 0 5.5 0C4.56371 0 3.92676 0.34784 3.52835 0.790518C3.15258 1.20804 3 1.69993 3 2V3.99991H1.5C0.671573 3.99991 0 4.67148 0 5.49991C0 6.32834 0.671573 6.99991 1.5 6.99991H2V8.00009C2 10.419 2.71776 11.4368 5 11.9001V12.5002C5 12.7763 5.22386 13.0002 5.5 13.0002C5.77614 13.0002 6 12.7763 6 12.5002L6 12.0001H15V12.5002C15 12.7763 15.2239 13.0002 15.5 13.0002C15.7761 13.0002 16 12.7763 16 12.5002V11.9292C19.0657 11.4907 19.4906 10.0658 19.9291 7.00009L20.5 6.99991C21.3284 6.99991 22 6.32834 22 5.49991C22 4.67148 21.3284 3.99991 20.5 3.99991H4L4.00006 1.99991ZM3.49054 4.99991C3.49368 4.99997 3.49684 5 3.5 5C3.50316 5 3.50632 4.99997 3.50946 4.99991H20.5C20.7761 4.99991 21 5.22377 21 5.49991C21 5.77605 20.7761 5.99991 20.5 5.99991H1.5C1.22386 5.99991 1 5.77605 1 5.49991C1 5.22377 1.22386 4.99991 1.5 4.99991H3.49054ZM18.917 7.00009H3V8.00009C3 10.2092 3.79086 11.0001 6 11.0001H15C17.973 11.0001 18.441 9.8378 18.917 7.00009Z" fill="#0C314E"/>
</svg>
