<svg width="15" height="14" viewBox="0 0 15 14" fill="none" xmlns="http://www.w3.org/2000/svg">
<path d="M13.4759 9.535C12.5534 9.535 11.6609 9.385 10.8284 9.115C10.5659 9.025 10.2734 9.0925 10.0709 9.295L8.89338 10.7725C6.77088 9.76 4.78338 7.8475 3.72588 5.65L5.18838 4.405C5.39088 4.195 5.45088 3.9025 5.36838 3.64C5.09088 2.8075 4.94838 1.915 4.94838 0.9925C4.94838 0.5875 4.61088 0.25 4.20588 0.25H1.61088C1.20588 0.25 0.718384 0.43 0.718384 0.9925C0.718384 7.96 6.51588 13.75 13.4759 13.75C14.0084 13.75 14.2184 13.2775 14.2184 12.865V10.2775C14.2184 9.8725 13.8809 9.535 13.4759 9.535Z" fill="#0179CB"/>
</svg>
