<svg width="18" height="18" viewBox="0 0 18 18" fill="none" xmlns="http://www.w3.org/2000/svg">
<g clip-path="url(#clip0_6701_192)">
<path d="M0.579163 17.5015C0.814653 16.8061 1.04131 16.1359 1.26851 15.4655C1.52835 14.6984 1.79006 13.932 2.04509 13.1636C2.06382 13.1067 2.05553 13.0228 2.02555 12.9709C1.14541 11.4574 0.777188 9.82879 0.914201 8.08859C1.20268 4.42563 3.99404 1.33929 7.63504 0.652134C12.1107 -0.192591 16.3808 2.59508 17.3811 7.01481C18.3774 11.4162 15.5143 15.8947 11.0791 16.8619C9.05895 17.3025 7.12793 17.0452 5.29566 16.0878C5.21404 16.0451 5.14848 16.0509 5.0698 16.0759C3.62341 16.5366 2.17675 16.9963 0.73009 17.456C0.688612 17.4693 0.646866 17.481 0.579163 17.5015ZM2.74086 15.3866C3.61351 15.1097 4.45378 14.844 5.29298 14.5748C5.37219 14.5493 5.43106 14.5541 5.50358 14.5993C7.08833 15.5827 8.80071 15.8949 10.6325 15.5365C14.3797 14.8036 16.855 11.024 16.0177 7.32278C15.1868 3.65053 11.6657 1.33371 7.93957 2.00757C4.8988 2.55762 2.53079 5.16912 2.30573 8.22783C2.18451 9.87264 2.59421 11.3771 3.54233 12.7334C3.59156 12.8038 3.59745 12.8596 3.57016 12.9385C3.3625 13.5409 3.15965 14.1452 2.95547 14.7486C2.88643 14.9524 2.81819 15.1565 2.74086 15.3866Z" fill="#0179CB"/>
<path d="M5.06095 6.78295C5.06336 6.02804 5.36521 5.41051 5.93414 4.91866C6.10701 4.76933 6.31119 4.70794 6.54186 4.73425C6.67004 4.74887 6.79956 4.75923 6.92855 4.76056C7.057 4.76215 7.15414 4.81264 7.21783 4.91919C7.26278 4.99492 7.30185 5.07544 7.3329 5.15754C7.53574 5.69111 7.7351 6.22601 7.93768 6.75957C7.98478 6.8834 7.99468 7.00908 7.91413 7.11484C7.7351 7.35027 7.55367 7.5849 7.35618 7.80492C7.18946 7.99065 7.16645 8.06479 7.28794 8.28587C7.93821 9.46886 8.87777 10.3404 10.124 10.8817C10.2982 10.9574 10.4039 10.9431 10.5316 10.802C10.7668 10.5418 10.998 10.2782 11.2257 10.0115C11.3568 9.85787 11.4422 9.82572 11.6341 9.89481C11.7176 9.92483 11.7995 9.96097 11.8781 10.0022C12.3708 10.2596 12.8608 10.5227 13.3553 10.7765C13.5153 10.8586 13.5785 10.9731 13.5648 11.1503C13.5164 11.7761 13.2817 12.2807 12.6949 12.5913C12.1083 12.902 11.5064 13.0322 10.8572 12.8249C9.62491 12.4316 8.45977 11.9204 7.51513 11.0023C6.90313 10.4074 6.37488 9.74972 5.91407 9.0344C5.63228 8.59703 5.35504 8.15779 5.21161 7.65452C5.13106 7.37126 5.08691 7.0779 5.02643 6.78907C5.03767 6.78721 5.04917 6.78508 5.06095 6.78295Z" fill="#0179CB"/>
</g>
<defs>
<clipPath id="clip0_6701_192">
<rect width="17" height="17" fill="white" transform="translate(0.579163 0.5)"/>
</clipPath>
</defs>
</svg>
